<svg xmlns="http://www.w3.org/2000/svg" height="20" viewBox="0 -960 960 960" width="20"><path d="M202.5-201q-20.669 0-35.084-14.416Q153-229.831 153-250.5v-107h654v107q0 20.969-14.416 35.234Q778.169-201 757.5-201h-555Zm-32-139v89.5q0 14 9 23t23 9h555q14 0 23-9t9-23V-340h-619Zm309.75-151.5q-34.058 0-50.154 24-16.096 24-58.372 24-42.277 0-59.25-24-16.974-24-51.224-24t-50.357 24q-16.107 24-57.893 24V-461q31.666 0 48.846-24 17.18-24 59.417-24t59.347 24q17.111 24 51.159 24 34.049 0 50.015-24 15.966-24 58.511-24 42.546 0 58.375 24 15.83 24 50.08 24t50-24q15.75-24 58-24T754-485q15 24 53 24v17.5q-41.809 0-58.904-24-17.096-24-51.346-24t-50 24q-15.75 24-58 24t-58.346-24q-16.096-24-50.154-24ZM153-595v20.5q0-71.5 73-128T480-759q181 0 254 56.5t73 128V-595H153Zm327.5-146.5q-128 0-197.75 34.75T188.5-612.5h583Q748-672 678.25-706.75T480.5-741.5ZM480-340Zm0-272.5Z"/></svg>