<svg xmlns="http://www.w3.org/2000/svg" height="20" viewBox="0 -960 960 960" width="20"><path d="M482.872-197.5q-117.705 0-200.039-82.422Q200.5-362.343 200.5-480.088q0-102.412 63.951-179.412t160.31-98.5H419q-11.5 28-17.25 55.25T396-648.188q0 107.396 73.958 181.292Q543.917-393 651-393q26.377 0 53.856-5.794Q732.335-404.589 760-416V-421.761q-20.5 96.359-97.628 160.31-77.127 63.951-179.5 63.951Zm.269-17.5q82.359 0 149.635-47.824Q700.053-310.647 732-388q-20.833 5.455-41.083 8.977-20.25 3.523-39.822 3.523-113.274 0-192.935-79.66-79.66-79.661-79.66-192.935 0-19.572 3.523-39.822Q385.545-708.167 391-729q-77.353 31.947-125.176 99.238Q218-562.472 218-479.826q0 110.362 77.334 187.594T483.141-215ZM469.5-466.5Z"/></svg>